<svg xmlns="http://www.w3.org/2000/svg" width="1080" height="300" viewBox="0 0 1080 300" role="img" aria-labelledby="t d">
  <title id="t">Metadata-driven scientific workflow</title><desc id="d">Tasks flow through metadata generation, scheduling, heterogeneous compute, validation, and reporting.</desc>
  <defs>
    <linearGradient id="b" x2="1" y2="1"><stop stop-color="#090e19"/><stop offset="1" stop-color="#141126"/></linearGradient>
    <filter id="g" x="-100%" y="-100%" width="300%" height="300%"><feGaussianBlur stdDeviation="3" result="x"/><feMerge><feMergeNode in="x"/><feMergeNode in="SourceGraphic"/></feMerge></filter>
    <path id="p1" d="M188 150H282"/><path id="p2" d="M438 150H532"/><path id="p3" d="M688 150H782"/><path id="p4" d="M908 150H976"/>
    <style>text{font-family:Inter,Segoe UI,Arial,sans-serif}.m{font-family:Consolas,monospace}</style>
  </defs>
  <rect width="1080" height="300" rx="20" fill="url(#b)"/><rect x="1" y="1" width="1078" height="298" rx="19" fill="none" stroke="#334155"/>
  <text x="42" y="45" fill="#f8fafc" font-size="20" font-weight="700">Logical petabyte scale · physical laptop scale</text><text x="42" y="69" fill="#94a3b8" font-size="13">Metadata-only discrete-event simulation for controlled scheduler comparison</text>
  <g fill="none" stroke="#334155" stroke-width="6" stroke-linecap="round"><use href="#p1"/><use href="#p2"/><use href="#p3"/><use href="#p4"/></g>
  <g fill="none" stroke="#7dd3fc" stroke-width="2" stroke-dasharray="7 10"><use href="#p1"><animate attributeName="stroke-dashoffset" from="17" to="0" dur=".7s" repeatCount="indefinite"/></use><use href="#p2"><animate attributeName="stroke-dashoffset" from="17" to="0" dur=".7s" repeatCount="indefinite"/></use><use href="#p3"><animate attributeName="stroke-dashoffset" from="17" to="0" dur=".7s" repeatCount="indefinite"/></use><use href="#p4"><animate attributeName="stroke-dashoffset" from="17" to="0" dur=".7s" repeatCount="indefinite"/></use></g>
  <g fill="#101827" stroke-width="2">
    <rect x="38" y="106" width="150" height="88" rx="14" stroke="#7dd3fc"/><rect x="282" y="106" width="156" height="88" rx="14" stroke="#c4b5fd"/><rect x="532" y="96" width="156" height="108" rx="14" stroke="#6ee7b7"/><rect x="782" y="106" width="126" height="88" rx="14" stroke="#fbbf24"/><rect x="976" y="106" width="72" height="88" rx="14" stroke="#7dd3fc"/>
  </g>
  <g fill="#f8fafc" text-anchor="middle"><text x="113" y="139" font-size="14" font-weight="700">WORKLOAD</text><text x="113" y="160" fill="#94a3b8" font-size="11">task metadata</text><text x="113" y="177" fill="#94a3b8" font-size="11">GB → PB logical scale</text><text x="360" y="139" font-size="14" font-weight="700">SCHEDULER</text><text x="360" y="160" fill="#94a3b8" font-size="11">policy · queue · priority</text><text x="610" y="128" font-size="14" font-weight="700">COMPUTE</text><text x="610" y="181" fill="#94a3b8" font-size="11">CPU · GPU · memory · I/O</text><text x="845" y="139" font-size="14" font-weight="700">VALIDATE</text><text x="845" y="160" fill="#94a3b8" font-size="11">compare policies</text><text x="1012" y="139" font-size="12" font-weight="700">REPORT</text></g>
  <g transform="translate(562 146)"><rect width="30" height="18" rx="4" fill="#15243a" stroke="#6ee7b7"/><rect x="38" width="30" height="18" rx="4" fill="#15243a" stroke="#6ee7b7"/><rect x="76" width="30" height="18" rx="4" fill="#15243a" stroke="#6ee7b7"/><g fill="#6ee7b7"><rect x="4" y="13" width="22" height="2"><animate attributeName="width" values="4;22;4" dur="2s" repeatCount="indefinite"/></rect><rect x="42" y="13" width="22" height="2"><animate attributeName="width" values="4;22;4" dur="2.4s" begin="-.8s" repeatCount="indefinite"/></rect><rect x="80" y="13" width="22" height="2"><animate attributeName="width" values="4;22;4" dur="1.8s" begin="-.4s" repeatCount="indefinite"/></rect></g></g>
  <g fill="#7dd3fc" filter="url(#g)"><circle r="4"><animateMotion dur="1.2s" repeatCount="indefinite"><mpath href="#p1"/></animateMotion></circle><circle r="4"><animateMotion dur="1.2s" begin="-.4s" repeatCount="indefinite"><mpath href="#p2"/></animateMotion></circle><circle r="4"><animateMotion dur="1.2s" begin="-.8s" repeatCount="indefinite"><mpath href="#p3"/></animateMotion></circle><circle r="4"><animateMotion dur="1.2s" begin="-.2s" repeatCount="indefinite"><mpath href="#p4"/></animateMotion></circle></g>
  <g class="m" font-size="11" fill="#94a3b8"><text x="44" y="244">EVENT CLOCK</text><text x="132" y="244" fill="#6ee7b7">00:42:17</text><text x="255" y="244">QUEUE</text><text x="303" y="244" fill="#c4b5fd">128 tasks</text><text x="430" y="244">UTILIZATION</text><text x="510" y="244" fill="#6ee7b7">CPU 84% · GPU 71%</text><text x="712" y="244">STATUS</text><text x="761" y="244" fill="#6ee7b7">reproducible</text></g>
  <circle cx="44" cy="271" r="5" fill="#6ee7b7"><animate attributeName="opacity" values="1;.25;1" dur="1.4s" repeatCount="indefinite"/></circle><text x="58" y="275" fill="#94a3b8" font-size="11">SIMULATION RUNNING</text><text x="1038" y="275" text-anchor="end" fill="#64748b" class="m" font-size="10">METADATA ≠ PHYSICAL DATA</text>
</svg>
